<?xml version="1.0" ?><!DOCTYPE svg  PUBLIC '-//W3C//DTD SVG 1.1//EN'  'http://www.w3.org/Graphics/SVG/1.1/DTD/svg11.dtd'><svg enable-background="new 0 0 500 500" height="500px" id="Layer_1" version="1.1" viewBox="0 0 500 500" width="500px" xml:space="preserve" xmlns="http://www.w3.org/2000/svg" xmlns:xlink="http://www.w3.org/1999/xlink"><g><path d="   M207.323,195.839c0,5.346-4.313,9.641-9.659,9.641" fill="none" stroke="#130B7A" stroke-linecap="round" stroke-linejoin="round" stroke-miterlimit="2.6131" stroke-width="10"/><line fill="none" stroke="#130B7A" stroke-linecap="round" stroke-linejoin="round" stroke-miterlimit="2.6131" stroke-width="10" x1="197.664" x2="84.66" y1="205.48" y2="205.48"/><path d="   M84.66,205.48c-5.328,0-9.66-4.295-9.66-9.641" fill="none" stroke="#130B7A" stroke-linecap="round" stroke-linejoin="round" stroke-miterlimit="2.6131" stroke-width="10"/><line fill="none" stroke="#130B7A" stroke-linecap="round" stroke-linejoin="round" stroke-miterlimit="2.6131" stroke-width="10" x1="75" x2="75" y1="195.839" y2="82.872"/><path d="   M75,82.872c0-5.346,4.332-9.697,9.66-9.697" fill="none" stroke="#130B7A" stroke-linecap="round" stroke-linejoin="round" stroke-miterlimit="2.6131" stroke-width="10"/><line fill="none" stroke="#130B7A" stroke-linecap="round" stroke-linejoin="round" stroke-miterlimit="2.6131" stroke-width="10" x1="84.66" x2="197.664" y1="73.175" y2="73.175"/><path d="   M197.664,73.175c5.346,0,9.659,4.351,9.659,9.697" fill="none" stroke="#130B7A" stroke-linecap="round" stroke-linejoin="round" stroke-miterlimit="2.6131" stroke-width="10"/><line fill="none" stroke="#130B7A" stroke-linecap="round" stroke-linejoin="round" stroke-miterlimit="2.6131" stroke-width="10" x1="207.323" x2="207.323" y1="82.872" y2="195.839"/><path d="   M207.323,417.202c0,5.347-4.313,9.623-9.659,9.623" fill="none" stroke="#130B7A" stroke-linecap="round" stroke-linejoin="round" stroke-miterlimit="2.6131" stroke-width="10"/><line fill="none" stroke="#130B7A" stroke-linecap="round" stroke-linejoin="round" stroke-miterlimit="2.6131" stroke-width="10" x1="197.664" x2="84.66" y1="426.825" y2="426.825"/><path d="   M84.66,426.825c-5.328,0-9.66-4.276-9.66-9.623" fill="none" stroke="#130B7A" stroke-linecap="round" stroke-linejoin="round" stroke-miterlimit="2.6131" stroke-width="10"/><line fill="none" stroke="#130B7A" stroke-linecap="round" stroke-linejoin="round" stroke-miterlimit="2.6131" stroke-width="10" x1="75" x2="75" y1="417.202" y2="304.234"/><path d="   M75,304.234c0-5.346,4.332-9.696,9.66-9.696" fill="none" stroke="#130B7A" stroke-linecap="round" stroke-linejoin="round" stroke-miterlimit="2.6131" stroke-width="10"/><line fill="none" stroke="#130B7A" stroke-linecap="round" stroke-linejoin="round" stroke-miterlimit="2.6131" stroke-width="10" x1="84.66" x2="197.664" y1="294.538" y2="294.538"/><path d="   M197.664,294.538c5.346,0,9.659,4.351,9.659,9.696" fill="none" stroke="#130B7A" stroke-linecap="round" stroke-linejoin="round" stroke-miterlimit="2.6131" stroke-width="10"/><line fill="none" stroke="#130B7A" stroke-linecap="round" stroke-linejoin="round" stroke-miterlimit="2.6131" stroke-width="10" x1="207.323" x2="207.323" y1="304.234" y2="417.202"/><path d="   M425,195.839c0,5.346-4.314,9.641-9.679,9.641" fill="none" stroke="#130B7A" stroke-linecap="round" stroke-linejoin="round" stroke-miterlimit="2.6131" stroke-width="10"/><line fill="none" stroke="#130B7A" stroke-linecap="round" stroke-linejoin="round" stroke-miterlimit="2.6131" stroke-width="10" x1="415.321" x2="302.336" y1="205.48" y2="205.48"/><path d="   M302.336,205.48c-5.328,0-9.66-4.295-9.66-9.641" fill="none" stroke="#130B7A" stroke-linecap="round" stroke-linejoin="round" stroke-miterlimit="2.6131" stroke-width="10"/><line fill="none" stroke="#130B7A" stroke-linecap="round" stroke-linejoin="round" stroke-miterlimit="2.6131" stroke-width="10" x1="292.676" x2="292.676" y1="195.839" y2="82.872"/><path d="   M292.676,82.872c0-5.346,4.332-9.697,9.66-9.697" fill="none" stroke="#130B7A" stroke-linecap="round" stroke-linejoin="round" stroke-miterlimit="2.6131" stroke-width="10"/><line fill="none" stroke="#130B7A" stroke-linecap="round" stroke-linejoin="round" stroke-miterlimit="2.6131" stroke-width="10" x1="302.336" x2="415.321" y1="73.175" y2="73.175"/><path d="   M415.321,73.175c5.362,0,9.679,4.351,9.679,9.697" fill="none" stroke="#130B7A" stroke-linecap="round" stroke-linejoin="round" stroke-miterlimit="2.6131" stroke-width="10"/><line fill="none" stroke="#130B7A" stroke-linecap="round" stroke-linejoin="round" stroke-miterlimit="2.6131" stroke-width="10" x1="425" x2="425" y1="82.872" y2="195.839"/><path d="   M425,417.202c0,5.347-4.314,9.623-9.679,9.623" fill="none" stroke="#130B7A" stroke-linecap="round" stroke-linejoin="round" stroke-miterlimit="2.6131" stroke-width="10"/><line fill="none" stroke="#130B7A" stroke-linecap="round" stroke-linejoin="round" stroke-miterlimit="2.6131" stroke-width="10" x1="415.321" x2="302.336" y1="426.825" y2="426.825"/><path d="   M302.336,426.825c-5.328,0-9.66-4.276-9.66-9.623" fill="none" stroke="#130B7A" stroke-linecap="round" stroke-linejoin="round" stroke-miterlimit="2.6131" stroke-width="10"/><line fill="none" stroke="#130B7A" stroke-linecap="round" stroke-linejoin="round" stroke-miterlimit="2.6131" stroke-width="10" x1="292.676" x2="292.676" y1="417.202" y2="304.234"/><path d="   M292.676,304.234c0-5.346,4.332-9.696,9.66-9.696" fill="none" stroke="#130B7A" stroke-linecap="round" stroke-linejoin="round" stroke-miterlimit="2.6131" stroke-width="10"/><line fill="none" stroke="#130B7A" stroke-linecap="round" stroke-linejoin="round" stroke-miterlimit="2.6131" stroke-width="10" x1="302.336" x2="415.321" y1="294.538" y2="294.538"/><path d="   M415.321,294.538c5.362,0,9.679,4.351,9.679,9.696" fill="none" stroke="#130B7A" stroke-linecap="round" stroke-linejoin="round" stroke-miterlimit="2.6131" stroke-width="10"/><line fill="none" stroke="#130B7A" stroke-linecap="round" stroke-linejoin="round" stroke-miterlimit="2.6131" stroke-width="10" x1="425" x2="425" y1="304.234" y2="417.202"/></g></svg>